<?xml version="1.0" encoding="UTF-8"?>
<svg id="Layer_2" data-name="Layer 2" xmlns="http://www.w3.org/2000/svg" viewBox="0 0 841.89 527.94">
  <defs>
    <style>
      .cls-1 {
        fill: #2e2c7b;
      }

      .cls-2 {
        fill: #e00000;
      }

      .cls-3 {
        fill: #fefefe;
      }
    </style>
  </defs>
  <g id="Layer_1-2" data-name="Layer 1">
    <polygon class="cls-3" points="0 .44 0 0 841.89 0 841.89 .44 335.88 .44 335.88 206.35 841.89 206.79 841.89 314.57 335.44 314.57 335.44 527.94 227.13 527.94 227.14 315.01 0 315.01 0 206.79 227.57 206.79 227.57 .44 0 .44"/>
    <rect class="cls-1" x="335.44" y="314.57" width="506.45" height="213.37"/>
    <polygon class="cls-2" points="841.89 .44 841.89 206.79 335.88 206.35 335.88 .44 841.89 .44"/>
    <rect class="cls-2" x="0" y="315.01" width="227.14" height="212.93"/>
    <path class="cls-1" d="M0,.44h227.57v206.35H0"/>
    <polygon class="cls-3" points="117.95 63.09 139 63.09 122.31 76.05 128.47 96.39 111.58 84.54 93.84 96.39 99.93 76.08 83.31 63.09 104.36 63.09 110.94 42.94 117.95 63.09"/>
    <polygon class="cls-3" points="170.13 106.9 191.62 106.9 174.57 119.87 180.65 139.76 163.33 128.32 146.02 140.2 152.1 119.91 135.49 106.9 156.54 106.9 163.12 86.75 170.13 106.9"/>
    <polygon class="cls-3" points="52.4 106.9 59.42 86.75 66.87 106.9 87.7 106.9 70.57 119.86 76.73 139.76 59.79 127.98 42.31 140.19 48.18 119.92 31.57 106.9 52.4 106.9"/>
  </g>
</svg>