<?xml version="1.0" encoding="UTF-8"?>
<svg id="Layer_2" data-name="Layer 2" xmlns="http://www.w3.org/2000/svg" viewBox="0 0 841.89 473.12">
  <defs>
    <style>
      .cls-1 {
        fill: #ea453d;
      }

      .cls-2 {
        fill: #fff;
      }

      .cls-3 {
        fill: red;
      }
    </style>
  </defs>
  <g id="Layer_1-2" data-name="Layer 1">
    <path class="cls-2" d="M841.89,204.14H255.2V.44h-65.77v203.71H0V0h841.89"/>
    <rect x="255.2" y="269.42" width="586.69" height="203.71"/>
    <polygon class="cls-3" points="0 203.71 189.43 203.71 189.43 0 255.2 0 255.2 203.71 841.89 203.71 841.89 269.42 255.2 269.42 255.2 473.12 189.43 473.12 189.43 269.42 0 269.42 0 203.71"/>
    <rect x="0" y="269.42" width="189.43" height="203.71"/>
    <polygon class="cls-1" points="704.21 32.85 727.23 9.21 750.09 31.95 773.27 9.21 796.26 32.26 773.91 55.42 796.26 78.57 773.65 101.16 750.47 78.84 726.88 101.15 704.24 78.57 726.84 55.18 704.21 32.85"/>
    <polygon class="cls-1" points="727.48 125.28 750.5 101.64 773.36 124.38 796.54 101.64 819.53 124.69 797.18 147.85 819.53 171.01 796.92 193.6 773.74 171.27 750.15 193.58 727.51 171.01 750.11 147.61 727.48 125.28"/>
  </g>
</svg>